<svg width="128" height="128" viewBox="0 0 64 64" xmlns="http://www.w3.org/2000/svg">

  <!-- Background -->
  <rect x="2" y="2" width="60" height="60" rx="12" fill="#1E293B"></rect>

  <!-- Left globe -->
  <circle cx="14" cy="32" r="6" stroke="#E5E7EB" stroke-width="2" fill="none"></circle>
  <line x1="8" y1="32" x2="20" y2="32" stroke="#E5E7EB" stroke-width="1.5"></line>
  <line x1="14" y1="26" x2="14" y2="38" stroke="#E5E7EB" stroke-width="1.5"></line>

  <!-- Right globe -->
  <circle cx="50" cy="32" r="6" stroke="#E5E7EB" stroke-width="2" fill="none"></circle>
  <line x1="44" y1="32" x2="56" y2="32" stroke="#E5E7EB" stroke-width="1.5"></line>
  <line x1="50" y1="26" x2="50" y2="38" stroke="#E5E7EB" stroke-width="1.5"></line>

  <!-- Servers -->
  <rect x="24" y="18" width="16" height="6" rx="2" fill="none" stroke="#E5E7EB" stroke-width="2"></rect>
  <rect x="24" y="29" width="16" height="6" rx="2" fill="none" stroke="#E5E7EB" stroke-width="2"></rect>
  <rect x="24" y="40" width="16" height="6" rx="2" fill="none" stroke="#E5E7EB" stroke-width="2"></rect>

  <!-- Server LEDs -->
  <circle cx="27" cy="21" r="0.8" fill="#22C55E"></circle>
  <circle cx="27" cy="32" r="0.8" fill="#22C55E"></circle>
  <circle cx="27" cy="43" r="0.8" fill="#22C55E"></circle>

  <!-- Connections -->
  <line x1="20" y1="32" x2="24" y2="32" stroke="#E5E7EB" stroke-width="2"></line>
  <line x1="40" y1="32" x2="44" y2="32" stroke="#E5E7EB" stroke-width="2"></line>

</svg>